<?xml version="1.0" encoding="UTF-8"?>
<!--Generator: Apple Native CoreSVG 326-->
<!DOCTYPE svg
PUBLIC "-//W3C//DTD SVG 1.1//EN"
       "http://www.w3.org/Graphics/SVG/1.1/DTD/svg11.dtd">
<svg version="1.1" xmlns="http://www.w3.org/2000/svg" xmlns:xlink="http://www.w3.org/1999/xlink" viewBox="0 0 99.6094 99.6582">
 <g>
  <rect height="99.6582" opacity="0" width="99.6094" x="0" y="0"/>
  <path d="M49.8047 99.6094C77.2949 99.6094 99.6094 77.2949 99.6094 49.8047C99.6094 22.3145 77.2949 0 49.8047 0C22.3145 0 0 22.3145 0 49.8047C0 77.2949 22.3145 99.6094 49.8047 99.6094ZM49.8047 91.3086C26.8555 91.3086 8.30078 72.7539 8.30078 49.8047C8.30078 26.8555 26.8555 8.30078 49.8047 8.30078C72.7539 8.30078 91.3086 26.8555 91.3086 49.8047C91.3086 72.7539 72.7539 91.3086 49.8047 91.3086Z" fill="black" fill-opacity="0.85"/>
  <path d="M28.5645 65.1855C28.5645 67.9688 29.9805 69.6289 32.4707 69.5801C34.9609 69.5312 36.377 67.9688 36.377 65.1855L36.377 51.6113C36.377 47.168 38.5254 45.1172 42.7246 45.1172L55.4688 45.1172L55.4688 52.7832C55.4688 55.957 59.0332 57.4219 61.7188 55.127L73.3398 45.0195C76.2695 42.4805 76.2695 39.8926 73.3398 37.3535L61.7188 27.2949C59.0332 24.9512 55.4688 26.4648 55.4688 29.5898L55.4688 37.2559L42.5781 37.2559C33.1055 37.2559 28.5645 41.7969 28.5645 51.2207Z" fill="black" fill-opacity="0.85"/>
 </g>
</svg>
